<svg version="1.1" id="Layer_1" xmlns="http://www.w3.org/2000/svg" xmlns:xlink="http://www.w3.org/1999/xlink" x="0px" y="0px"
	 width="100%" viewBox="0 0 1800 1800" enable-background="new 0 0 1800 1800" xml:space="preserve">
<path fill="#000000" opacity="1.000000" stroke="none" 
	d="
M1.000000,631.000000 
	C1.000000,420.666656 1.000000,210.833328 1.000000,1.000000 
	C601.000000,1.000000 1201.000000,1.000000 1801.000000,1.000000 
	C1801.000000,601.000000 1801.000000,1201.000000 1801.000000,1801.000000 
	C1201.000000,1801.000000 601.000000,1801.000000 1.000000,1801.000000 
	C1.000000,1411.166626 1.000000,1021.333313 1.000000,631.000000 
M1542.930786,887.112549 
	C1552.201782,886.387085 1561.475952,885.699219 1570.743164,884.928833 
	C1594.234741,882.976074 1617.735596,881.119568 1641.204834,878.925049 
	C1647.730225,878.314941 1654.362183,878.685547 1659.083984,871.593079 
	C1700.589966,809.247375 1742.459473,747.143860 1784.152710,684.922607 
	C1785.979858,682.195862 1787.852417,679.153564 1788.423584,676.024536 
	C1789.045288,672.617981 1789.419189,668.135986 1787.734009,665.517212 
	C1780.549194,654.351440 1772.562744,643.701294 1765.109497,632.194336 
	C1787.058960,586.731018 1796.708374,539.281555 1789.182007,488.789673 
	C1780.968994,433.691620 1760.447144,383.786591 1726.843384,339.416534 
	C1682.427246,280.769928 1624.519043,240.009933 1556.608765,213.003860 
	C1512.990112,195.657883 1467.934326,184.511169 1420.628296,185.006760 
	C1403.989258,185.181076 1387.319092,187.541443 1370.736694,186.925293 
	C1335.297607,185.608459 1299.852295,183.644760 1264.517090,180.668884 
	C1244.676392,178.997955 1224.641357,176.366516 1205.404297,171.410309 
	C1147.865112,156.586044 1094.063843,131.725281 1043.074097,102.074028 
	C952.033020,49.132290 855.189758,16.456919 750.026611,9.291665 
	C699.431213,5.844368 649.182129,9.080177 599.371826,18.910864 
	C514.473450,35.666634 437.750885,70.328522 369.737274,123.882233 
	C316.107452,166.110229 271.616516,216.904846 233.452194,273.176483 
	C214.516205,301.096802 197.638397,330.412964 179.060516,358.966888 
	C162.606003,354.983917 146.157928,350.974091 129.694656,347.027679 
	C119.282066,344.531616 119.271965,344.574066 113.577316,353.359924 
	C113.396103,353.639526 113.216934,353.920776 113.026299,354.193909 
	C95.207100,379.725555 77.418015,405.278290 59.556541,430.780334 
	C45.995396,450.142487 32.247971,469.374756 18.765350,488.791138 
	C10.795145,500.269073 10.420477,512.211670 17.484671,524.377991 
	C23.251623,534.310181 28.906960,544.307556 34.562145,554.304077 
	C45.786896,574.145935 56.977409,594.007080 68.078270,614.675415 
	C34.860783,716.054504 13.575121,819.621338 10.566567,926.583374 
	C8.637796,995.156311 15.143591,1062.914917 29.579248,1129.939453 
	C46.423100,1208.145142 73.770462,1282.682251 108.015579,1354.833984 
	C143.495972,1429.588257 188.187164,1498.178101 243.652390,1559.718384 
	C282.988495,1603.363037 327.796661,1640.885498 374.273499,1676.419922 
	C432.742706,1721.123413 496.571228,1755.904663 567.640869,1776.430298 
	C623.651306,1792.606567 680.615540,1798.197876 738.578308,1790.789917 
	C780.697693,1785.406616 821.445679,1774.412842 860.220093,1757.171509 
	C881.709778,1747.615967 902.230408,1735.881226 923.962341,1725.025024 
	C935.831848,1723.047119 947.682617,1720.947510 959.575317,1719.120728 
	C976.046692,1716.590698 992.566589,1714.375366 1009.034119,1711.822266 
	C1024.845459,1709.370972 1040.583008,1706.420044 1056.425659,1704.209351 
	C1061.217896,1703.540894 1063.087402,1701.948730 1063.124390,1697.112427 
	C1063.373779,1664.488281 1063.801636,1631.865723 1064.733521,1598.872070 
	C1065.544189,1597.818115 1066.354980,1596.764282 1067.165894,1595.710571 
	C1095.667358,1558.674194 1117.440552,1517.696533 1135.959961,1475.066528 
	C1156.675903,1427.380005 1176.522095,1379.298218 1195.847656,1331.028564 
	C1233.971680,1235.806396 1287.184326,1150.105347 1355.405151,1073.555786 
	C1396.587280,1027.345947 1440.843384,984.205933 1485.452515,941.391724 
	C1504.315552,923.287598 1523.178345,905.183044 1542.930786,887.112549 
z"/>
<path fill="#144C59" opacity="1.000000" stroke="none" 
	d="
M1064.171875,1599.242554 
	C1063.801636,1631.865723 1063.373779,1664.488281 1063.124390,1697.112427 
	C1063.087402,1701.948730 1061.217896,1703.540894 1056.425659,1704.209351 
	C1040.583008,1706.420044 1024.845459,1709.370972 1009.034119,1711.822266 
	C992.566589,1714.375366 976.046692,1716.590698 959.575317,1719.120728 
	C947.682617,1720.947510 935.831848,1723.047119 923.125122,1724.955811 
	C919.245667,1724.958740 916.203491,1725.031006 913.123596,1724.675049 
	C913.257812,1716.640015 913.575256,1709.033203 913.579407,1701.426270 
	C913.626160,1616.271240 913.513245,1531.116089 913.662354,1445.961304 
	C913.882324,1320.319824 913.996399,1194.677124 914.706238,1069.037964 
	C915.141235,992.059875 916.600891,915.087524 917.609192,838.112732 
	C918.600098,762.470703 919.628967,686.829163 920.592041,611.186707 
	C921.625000,530.045776 922.650635,448.904724 923.585632,367.762634 
	C924.330505,303.114563 924.935303,238.464828 925.596680,173.815765 
	C925.626526,170.894302 925.600464,167.972260 925.600464,164.359131 
	C923.332336,165.263535 921.816162,165.787735 920.367310,166.457520 
	C885.544006,182.556290 850.763306,198.748077 815.859924,214.671051 
	C812.072449,216.398911 810.834167,218.381744 810.844238,222.403732 
	C811.026001,295.059204 811.019165,367.715088 811.164551,440.370636 
	C811.478638,597.313660 811.851440,754.256531 812.210266,911.199463 
	C812.358459,976.022400 812.676941,1040.845337 812.655579,1105.668213 
	C812.632507,1175.484009 812.181946,1245.299805 812.133545,1315.115723 
	C812.060303,1420.603394 812.180725,1526.091187 812.194885,1631.578857 
	C812.195984,1639.736450 812.008057,1647.894043 811.568726,1655.996338 
	C809.844177,1655.018921 808.546570,1653.910645 807.057251,1653.209106 
	C802.415100,1651.022461 800.683472,1647.489136 801.068420,1642.410034 
	C801.432861,1637.601318 801.285645,1632.750244 801.285950,1627.917847 
	C801.294495,1505.418457 801.293945,1382.919189 801.282532,1260.419800 
	C801.282410,1258.663330 801.124817,1256.906860 801.041870,1255.174194 
	C799.123962,1255.174194 797.794128,1255.085083 796.479126,1255.187256 
	C762.263550,1257.845459 728.048157,1260.506836 693.835510,1263.201782 
	C632.053833,1268.068237 570.276855,1272.994629 508.492340,1277.824463 
	C455.011536,1282.005127 401.522278,1286.077637 348.038849,1290.224976 
	C342.231262,1290.675171 335.864014,1289.988647 330.792511,1292.202637 
	C325.322876,1294.590576 324.252991,1292.322754 322.453033,1288.538940 
	C302.435211,1246.456299 282.400024,1204.381836 262.244873,1162.364868 
	C259.277618,1156.179077 259.045959,1150.133301 261.958740,1144.108154 
	C266.512451,1134.688721 271.171539,1125.309570 276.128815,1116.097778 
	C292.773865,1085.166626 309.553070,1054.307495 326.328613,1023.446777 
	C328.772522,1018.950806 332.358551,1016.230347 337.809723,1015.859924 
	C343.268463,1015.488953 348.679535,1014.413330 354.110687,1013.640930 
	C399.937408,1007.123657 445.759857,1000.576721 491.591492,994.094482 
	C542.204285,986.936035 592.829285,979.863892 643.441895,972.704346 
	C694.218628,965.521484 744.978699,958.219543 795.773987,951.171082 
	C799.776978,950.615601 800.999817,949.432190 800.970642,945.385803 
	C800.693176,906.888794 800.641663,868.390259 800.472717,829.892395 
	C800.422241,818.399780 800.174622,806.908142 800.092590,795.415466 
	C800.075256,792.988281 799.793823,791.536255 796.700378,791.187805 
	C776.350525,788.895508 756.036621,786.285583 735.696411,783.903687 
	C711.545959,781.075623 687.376770,778.407776 663.223083,775.606934 
	C627.159546,771.425110 591.103271,767.181396 555.042480,762.976074 
	C519.642700,758.847839 484.240356,754.740723 448.840424,750.613342 
	C412.779694,746.408875 376.720978,742.186646 340.660431,737.980530 
	C308.072937,734.179504 275.483185,730.398010 242.896149,726.592896 
	C207.000992,722.401428 171.115829,718.122314 135.206390,714.057251 
	C128.774765,713.329163 124.331512,712.168396 120.587799,705.171997 
	C105.119530,676.264038 88.395210,648.027832 72.093597,619.567017 
	C70.951088,617.572327 69.493294,615.758301 68.182091,613.860291 
	C56.977409,594.007080 45.786896,574.145935 34.562145,554.304077 
	C28.906960,544.307556 23.251623,534.310181 17.484671,524.377991 
	C10.420477,512.211670 10.795145,500.269073 18.765350,488.791138 
	C32.247971,469.374756 45.995396,450.142487 59.556541,430.780334 
	C77.418015,405.278290 95.207100,379.725555 113.026299,354.193909 
	C113.216934,353.920776 113.396103,353.639526 113.577316,353.359924 
	C119.271965,344.574066 119.282066,344.531616 129.694656,347.027679 
	C146.157928,350.974091 162.606003,354.983917 179.723236,359.294739 
	C181.828842,360.018005 183.262604,360.451080 184.715927,360.803528 
	C372.389008,406.315552 560.063660,451.821167 747.737793,497.328796 
	C764.230774,501.328033 780.719482,505.344635 797.214783,509.334351 
	C798.938782,509.751343 800.693970,510.039734 802.927795,510.486389 
	C802.927795,507.908234 802.941711,505.927948 802.925720,503.947906 
	C802.614319,465.293732 801.920959,426.638062 802.080383,387.985870 
	C802.284424,338.504395 803.275879,289.026672 803.703674,239.545364 
	C803.821594,225.905334 803.246704,212.254623 802.762146,198.616898 
	C802.612854,194.417557 804.299072,192.075684 808.134460,190.823212 
	C809.864258,190.258301 811.486633,189.359573 813.148499,188.592117 
	C853.483765,169.964706 893.797546,151.290207 934.207031,132.825226 
	C936.415588,131.816071 939.704468,131.770798 942.005676,132.608536 
	C951.693115,136.135162 961.178406,140.213028 970.770264,144.007034 
	C1004.636292,157.402603 1038.515259,170.765289 1072.390259,184.138214 
	C1084.686035,188.992279 1085.709717,190.649475 1085.436646,204.096664 
	C1085.193115,216.091507 1085.132202,228.089905 1084.946899,240.086060 
	C1082.986084,367.043030 1081.015747,493.999908 1079.055298,620.956848 
	C1079.009644,623.909790 1079.049438,626.864014 1079.049438,630.044434 
	C1080.748779,629.853149 1081.907959,629.802673 1083.034790,629.584229 
	C1119.462646,622.523193 1155.885376,615.436707 1192.312866,608.373413 
	C1246.063599,597.951233 1299.799561,587.451233 1353.573486,577.149658 
	C1461.409302,556.491394 1569.263184,535.927795 1677.138916,515.479126 
	C1679.238647,515.081116 1682.427368,515.864929 1683.848267,517.324036 
	C1687.740112,521.321472 1691.218140,525.795227 1694.399170,530.398804 
	C1708.128052,550.266541 1721.658447,570.271301 1735.327148,590.180908 
	C1745.120117,604.445496 1755.017944,618.638123 1764.868896,632.862915 
	C1772.562744,643.701294 1780.549194,654.351440 1787.734009,665.517212 
	C1789.419189,668.135986 1789.045288,672.617981 1788.423584,676.024536 
	C1787.852417,679.153564 1785.979858,682.195862 1784.152710,684.922607 
	C1742.459473,747.143860 1700.589966,809.247375 1659.083984,871.593079 
	C1654.362183,878.685547 1647.730225,878.314941 1641.204834,878.925049 
	C1617.735596,881.119568 1594.234741,882.976074 1570.743164,884.928833 
	C1561.475952,885.699219 1552.201782,886.387085 1542.037109,887.072083 
	C1511.097412,889.501770 1481.049316,891.945190 1451.006104,894.449158 
	C1417.143066,897.271423 1383.294434,900.274719 1349.419189,902.939026 
	C1335.988037,903.995422 1322.478882,904.058716 1309.048096,905.117249 
	C1297.602539,906.019226 1286.245239,908.040710 1274.800049,908.951111 
	C1259.860840,910.139404 1244.835693,910.304688 1229.914795,911.652832 
	C1202.388550,914.139893 1174.920898,917.268555 1147.410400,919.938721 
	C1125.203125,922.094177 1102.983032,924.158630 1080.735718,925.826233 
	C1075.543457,926.215515 1074.198242,927.861023 1074.126587,932.936279 
	C1071.792358,1098.224243 1069.312988,1263.510132 1066.831055,1428.795898 
	C1065.977905,1485.612061 1065.060059,1542.427002 1064.171875,1599.242554 
M1738.968140,623.526428 
	C1718.961792,594.948547 1698.988403,566.347412 1678.843018,537.867920 
	C1677.928833,536.575500 1675.291382,535.504272 1673.740967,535.803589 
	C1609.694702,548.165771 1545.670410,560.642944 1481.665894,573.220642 
	C1401.051758,589.062256 1320.461548,605.025391 1239.852905,620.895203 
	C1171.946411,634.264282 1104.036133,647.615967 1036.092285,660.792725 
	C1032.616455,661.466858 1031.879639,662.712097 1031.843872,665.886536 
	C1030.950073,745.203064 1029.972290,824.518616 1029.013184,903.834412 
	C1028.989746,905.776489 1029.010132,907.719177 1029.010132,910.010620 
	C1031.792480,909.868347 1033.931152,909.824463 1036.057495,909.639709 
	C1049.816406,908.443848 1063.567749,907.159363 1077.330811,906.014099 
	C1099.222656,904.192444 1121.125977,902.509766 1143.016357,900.669983 
	C1164.738892,898.844299 1186.446411,896.842163 1208.169189,895.019043 
	C1230.059570,893.181824 1251.965210,891.526306 1273.855469,889.686462 
	C1295.577515,887.860718 1317.283691,885.845154 1339.005981,884.022095 
	C1360.896362,882.184998 1382.803711,880.549744 1404.693115,878.702759 
	C1430.228394,876.548096 1455.746826,874.191406 1481.283081,872.048584 
	C1507.153442,869.877625 1533.042236,867.928711 1558.912598,865.758667 
	C1589.294678,863.210144 1619.661621,860.479370 1650.047363,857.977173 
	C1653.188721,857.718384 1655.148193,856.644897 1656.905884,854.021606 
	C1695.571045,796.315491 1734.288574,738.644409 1773.132080,681.058350 
	C1775.214966,677.970459 1774.850342,676.021729 1772.902466,673.208252 
	C1761.623901,656.917175 1750.529053,640.498901 1738.968140,623.526428 
z"/>
<path fill="#D9B7B0" opacity="1.000000" stroke="none" 
	d="
M913.161377,1725.103271 
	C916.203491,1725.031006 919.245667,1724.958740 922.737793,1725.007690 
	C902.230408,1735.881226 881.709778,1747.615967 860.220093,1757.171509 
	C821.445679,1774.412842 780.697693,1785.406616 738.578308,1790.789917 
	C680.615540,1798.197876 623.651306,1792.606567 567.640869,1776.430298 
	C496.571228,1755.904663 432.742706,1721.123413 374.273499,1676.419922 
	C327.796661,1640.885498 282.988495,1603.363037 243.652390,1559.718384 
	C188.187164,1498.178101 143.495972,1429.588257 108.015579,1354.833984 
	C73.770462,1282.682251 46.423100,1208.145142 29.579248,1129.939453 
	C15.143591,1062.914917 8.637796,995.156311 10.566567,926.583374 
	C13.575121,819.621338 34.860783,716.054504 68.130188,614.267822 
	C69.493294,615.758301 70.951088,617.572327 72.093597,619.567017 
	C88.395210,648.027832 105.119530,676.264038 120.587799,705.171997 
	C124.331512,712.168396 128.774765,713.329163 135.206390,714.057251 
	C171.115829,718.122314 207.000992,722.401428 242.896149,726.592896 
	C275.483185,730.398010 308.072937,734.179504 340.660431,737.980530 
	C376.720978,742.186646 412.779694,746.408875 448.840424,750.613342 
	C484.240356,754.740723 519.642700,758.847839 555.042480,762.976074 
	C591.103271,767.181396 627.159546,771.425110 663.223083,775.606934 
	C687.376770,778.407776 711.545959,781.075623 735.696411,783.903687 
	C756.036621,786.285583 776.350525,788.895508 796.700378,791.187805 
	C799.793823,791.536255 800.075256,792.988281 800.092590,795.415466 
	C800.174622,806.908142 800.422241,818.399780 800.472717,829.892395 
	C800.641663,868.390259 800.693176,906.888794 800.970642,945.385803 
	C800.999817,949.432190 799.776978,950.615601 795.773987,951.171082 
	C744.978699,958.219543 694.218628,965.521484 643.441895,972.704346 
	C592.829285,979.863892 542.204285,986.936035 491.591492,994.094482 
	C445.759857,1000.576721 399.937408,1007.123657 354.110687,1013.640930 
	C348.679535,1014.413330 343.268463,1015.488953 337.809723,1015.859924 
	C332.358551,1016.230347 328.772522,1018.950806 326.328613,1023.446777 
	C309.553070,1054.307495 292.773865,1085.166626 276.128815,1116.097778 
	C271.171539,1125.309570 266.512451,1134.688721 261.958740,1144.108154 
	C259.045959,1150.133301 259.277618,1156.179077 262.244873,1162.364868 
	C282.400024,1204.381836 302.435211,1246.456299 322.453033,1288.538940 
	C324.252991,1292.322754 325.322876,1294.590576 330.792511,1292.202637 
	C335.864014,1289.988647 342.231262,1290.675171 348.038849,1290.224976 
	C401.522278,1286.077637 455.011536,1282.005127 508.492340,1277.824463 
	C570.276855,1272.994629 632.053833,1268.068237 693.835510,1263.201782 
	C728.048157,1260.506836 762.263550,1257.845459 796.479126,1255.187256 
	C797.794128,1255.085083 799.123962,1255.174194 801.041870,1255.174194 
	C801.124817,1256.906860 801.282410,1258.663330 801.282532,1260.419800 
	C801.293945,1382.919189 801.294495,1505.418457 801.285950,1627.917847 
	C801.285645,1632.750244 801.432861,1637.601318 801.068420,1642.410034 
	C800.683472,1647.489136 802.415100,1651.022461 807.057251,1653.209106 
	C808.546570,1653.910645 809.844177,1655.018921 811.784668,1656.252197 
	C813.117615,1657.186035 813.861023,1657.858032 814.677979,1658.424072 
	C845.311707,1679.647461 875.939392,1700.879639 906.622314,1722.031494 
	C908.578430,1723.379761 910.971558,1724.093994 913.161377,1725.103271 
z"/>
<path fill="#D9B7B0" opacity="1.000000" stroke="none" 
	d="
M1764.989258,632.528564 
	C1755.017944,618.638123 1745.120117,604.445496 1735.327148,590.180908 
	C1721.658447,570.271301 1708.128052,550.266541 1694.399170,530.398804 
	C1691.218140,525.795227 1687.740112,521.321472 1683.848267,517.324036 
	C1682.427368,515.864929 1679.238647,515.081116 1677.138916,515.479126 
	C1569.263184,535.927795 1461.409302,556.491394 1353.573486,577.149658 
	C1299.799561,587.451233 1246.063599,597.951233 1192.312866,608.373413 
	C1155.885376,615.436707 1119.462646,622.523193 1083.034790,629.584229 
	C1081.907959,629.802673 1080.748779,629.853149 1079.049438,630.044434 
	C1079.049438,626.864014 1079.009644,623.909790 1079.055298,620.956848 
	C1081.015747,493.999908 1082.986084,367.043030 1084.946899,240.086060 
	C1085.132202,228.089905 1085.193115,216.091507 1085.436646,204.096664 
	C1085.709717,190.649475 1084.686035,188.992279 1072.390259,184.138214 
	C1038.515259,170.765289 1004.636292,157.402603 970.770264,144.007034 
	C961.178406,140.213028 951.693115,136.135162 942.005676,132.608536 
	C939.704468,131.770798 936.415588,131.816071 934.207031,132.825226 
	C893.797546,151.290207 853.483765,169.964706 813.148499,188.592117 
	C811.486633,189.359573 809.864258,190.258301 808.134460,190.823212 
	C804.299072,192.075684 802.612854,194.417557 802.762146,198.616898 
	C803.246704,212.254623 803.821594,225.905334 803.703674,239.545364 
	C803.275879,289.026672 802.284424,338.504395 802.080383,387.985870 
	C801.920959,426.638062 802.614319,465.293732 802.925720,503.947906 
	C802.941711,505.927948 802.927795,507.908234 802.927795,510.486389 
	C800.693970,510.039734 798.938782,509.751343 797.214783,509.334351 
	C780.719482,505.344635 764.230774,501.328033 747.737793,497.328796 
	C560.063660,451.821167 372.389008,406.315552 184.715927,360.803528 
	C183.262604,360.451080 181.828842,360.018005 180.107712,359.360107 
	C197.638397,330.412964 214.516205,301.096802 233.452194,273.176483 
	C271.616516,216.904846 316.107452,166.110229 369.737274,123.882233 
	C437.750885,70.328522 514.473450,35.666634 599.371826,18.910864 
	C649.182129,9.080177 699.431213,5.844368 750.026611,9.291665 
	C855.189758,16.456919 952.033020,49.132290 1043.074097,102.074028 
	C1094.063843,131.725281 1147.865112,156.586044 1205.404297,171.410309 
	C1224.641357,176.366516 1244.676392,178.997955 1264.517090,180.668884 
	C1299.852295,183.644760 1335.297607,185.608459 1370.736694,186.925293 
	C1387.319092,187.541443 1403.989258,185.181076 1420.628296,185.006760 
	C1467.934326,184.511169 1512.990112,195.657883 1556.608765,213.003860 
	C1624.519043,240.009933 1682.427246,280.769928 1726.843384,339.416534 
	C1760.447144,383.786591 1780.968994,433.691620 1789.182007,488.789673 
	C1796.708374,539.281555 1787.058960,586.731018 1764.989258,632.528564 
z"/>
<path fill="#D9B7B0" opacity="1.000000" stroke="none" 
	d="
M1064.452637,1599.057373 
	C1065.060059,1542.427002 1065.977905,1485.612061 1066.831055,1428.795898 
	C1069.312988,1263.510132 1071.792358,1098.224243 1074.126587,932.936279 
	C1074.198242,927.861023 1075.543457,926.215515 1080.735718,925.826233 
	C1102.983032,924.158630 1125.203125,922.094177 1147.410400,919.938721 
	C1174.920898,917.268555 1202.388550,914.139893 1229.914795,911.652832 
	C1244.835693,910.304688 1259.860840,910.139404 1274.800049,908.951111 
	C1286.245239,908.040710 1297.602539,906.019226 1309.048096,905.117249 
	C1322.478882,904.058716 1335.988037,903.995422 1349.419189,902.939026 
	C1383.294434,900.274719 1417.143066,897.271423 1451.006104,894.449158 
	C1481.049316,891.945190 1511.097412,889.501770 1541.592285,887.055176 
	C1523.178345,905.183044 1504.315552,923.287598 1485.452515,941.391724 
	C1440.843384,984.205933 1396.587280,1027.345947 1355.405151,1073.555786 
	C1287.184326,1150.105347 1233.971680,1235.806396 1195.847656,1331.028564 
	C1176.522095,1379.298218 1156.675903,1427.380005 1135.959961,1475.066528 
	C1117.440552,1517.696533 1095.667358,1558.674194 1067.165894,1595.710571 
	C1066.354980,1596.764282 1065.544189,1597.818115 1064.452637,1599.057373 
z"/>
<path fill="#BFD4D9" opacity="1.000000" stroke="none" 
	d="
M1739.170166,623.825012 
	C1750.529053,640.498901 1761.623901,656.917175 1772.902466,673.208252 
	C1774.850342,676.021729 1775.214966,677.970459 1773.132080,681.058350 
	C1734.288574,738.644409 1695.571045,796.315491 1656.905884,854.021606 
	C1655.148193,856.644897 1653.188721,857.718384 1650.047363,857.977173 
	C1619.661621,860.479370 1589.294678,863.210144 1558.912598,865.758667 
	C1533.042236,867.928711 1507.153442,869.877625 1481.283081,872.048584 
	C1455.746826,874.191406 1430.228394,876.548096 1404.693115,878.702759 
	C1382.803711,880.549744 1360.896362,882.184998 1339.005981,884.022095 
	C1317.283691,885.845154 1295.577515,887.860718 1273.855469,889.686462 
	C1251.965210,891.526306 1230.059570,893.181824 1208.169189,895.019043 
	C1186.446411,896.842163 1164.738892,898.844299 1143.016357,900.669983 
	C1121.125977,902.509766 1099.222656,904.192444 1077.330811,906.014099 
	C1063.567749,907.159363 1049.816406,908.443848 1036.057495,909.639709 
	C1033.931152,909.824463 1031.792480,909.868347 1029.010132,910.010620 
	C1029.010132,907.719177 1028.989746,905.776489 1029.013184,903.834412 
	C1029.972290,824.518616 1030.950073,745.203064 1031.843872,665.886536 
	C1031.879639,662.712097 1032.616455,661.466858 1036.092285,660.792725 
	C1104.036133,647.615967 1171.946411,634.264282 1239.852905,620.895203 
	C1320.461548,605.025391 1401.051758,589.062256 1481.665894,573.220642 
	C1545.670410,560.642944 1609.694702,548.165771 1673.740967,535.803589 
	C1675.291382,535.504272 1677.928833,536.575500 1678.843018,537.867920 
	C1698.988403,566.347412 1718.961792,594.948547 1739.170166,623.825012 
z"/>
<path fill="#BFD4D9" opacity="1.000000" stroke="none" 
	d="
M913.123657,1724.675049 
	C910.971558,1724.093994 908.578430,1723.379761 906.622314,1722.031494 
	C875.939392,1700.879639 845.311707,1679.647461 814.677979,1658.424072 
	C813.861023,1657.858032 813.117615,1657.186035 812.123901,1656.307617 
	C812.008057,1647.894043 812.195984,1639.736450 812.194885,1631.578857 
	C812.180725,1526.091187 812.060303,1420.603394 812.133545,1315.115723 
	C812.181946,1245.299805 812.632507,1175.484009 812.655579,1105.668213 
	C812.676941,1040.845337 812.358459,976.022400 812.210266,911.199463 
	C811.851440,754.256531 811.478638,597.313660 811.164551,440.370636 
	C811.019165,367.715088 811.026001,295.059204 810.844238,222.403732 
	C810.834167,218.381744 812.072449,216.398911 815.859924,214.671051 
	C850.763306,198.748077 885.544006,182.556290 920.367310,166.457520 
	C921.816162,165.787735 923.332336,165.263535 925.600464,164.359131 
	C925.600464,167.972260 925.626526,170.894302 925.596680,173.815765 
	C924.935303,238.464828 924.330505,303.114563 923.585632,367.762634 
	C922.650635,448.904724 921.625000,530.045776 920.592041,611.186707 
	C919.628967,686.829163 918.600098,762.470703 917.609192,838.112732 
	C916.600891,915.087524 915.141235,992.059875 914.706238,1069.037964 
	C913.996399,1194.677124 913.882324,1320.319824 913.662354,1445.961304 
	C913.513245,1531.116089 913.626160,1616.271240 913.579407,1701.426270 
	C913.575256,1709.033203 913.257812,1716.640015 913.123657,1724.675049 
z"/>
</svg>